<svg version="1.1" xmlns="http://www.w3.org/2000/svg" xmlns:xlink="http://www.w3.org/1999/xlink" viewBox="0 0 252 252"><g transform=""><g fill="none" fill-rule="nonzero" stroke="none" stroke-width="none" stroke-linecap="none" stroke-linejoin="none" stroke-miterlimit="10" stroke-dasharray="" stroke-dashoffset="0" font-family="none" font-weight="none" font-size="none" text-anchor="none" style="mix-blend-mode: normal"><path d="M0,252v-252h252v252z" fill="none" stroke="none" stroke-width="1" stroke-linecap="butt" stroke-linejoin="miter"></path><g id="Layer_1"><g fill="#faefde" stroke="none" stroke-width="1" stroke-linecap="butt" stroke-linejoin="miter"><path d="M169.37156,200.8125c20.98688,0 24.57,0 24.57,0c3.58312,-0.07875 16.89187,-1.26 29.05875,-13.23c14.25375,-14.0175 18.07313,-31.77562 20.04188,-41.61937c1.96875,-9.84375 1.77187,-19.80562 3.74062,-25.71187c3.34688,-10.04062 0,-13.78125 -5.90625,-13.78125c-1.96875,0 -9.52875,1.18125 -14.92313,13.97812c-2.28375,5.355 -3.9375,12.67875 -6.96937,19.41187l-3.9375,-91.8225c-0.07875,-2.44125 -1.14188,-4.5675 -2.79563,-6.1425c-1.61437,-1.575 -3.81937,-2.52 -6.26062,-2.52c-5.00062,0 -9.05625,4.05562 -9.05625,9.05625v61.81875l-1.69313,-72.84375c-0.07875,-2.75625 -1.22063,-5.1975 -3.07125,-6.96937c-1.81125,-1.77187 -4.29188,-2.87438 -7.04812,-2.87438c-5.47312,0 -9.96188,4.37063 -10.11938,9.84375l-1.69312,72.84375v-61.85812c0,-2.48062 -1.02375,-4.76437 -2.63813,-6.37875c-1.61437,-1.61438 -3.89812,-2.63813 -6.37875,-2.63813c-4.84312,0 -8.82,3.85875 -8.9775,8.70187l-1.69313,62.17312v-43.07625c0,-2.24438 -0.90562,-4.2525 -2.3625,-5.74875c-1.49625,-1.45687 -3.50438,-2.3625 -5.74875,-2.3625c-4.29187,0 -7.83563,3.34688 -8.07187,7.63875c-0.90562,16.65562 -3.03188,71.46562 -3.50438,82.92375c-0.59062,15.00187 3.70125,51.1875 35.4375,51.1875z"></path></g><g fill="#faefde" stroke="none" stroke-width="1" stroke-linecap="butt" stroke-linejoin="miter"><path d="M82.6875,200.8125c-20.98687,0 -24.57,0 -24.57,0c-3.58313,-0.07875 -16.89187,-1.26 -29.05875,-13.23c-14.25375,-14.0175 -18.07313,-31.77562 -20.04188,-41.61937c-1.96875,-9.84375 -1.77188,-19.80562 -3.74062,-25.71187c-3.34687,-10.04062 0,-13.78125 5.90625,-13.78125c1.96875,0 9.52875,1.18125 14.92313,13.97812c2.28375,5.355 3.9375,12.67875 6.96937,19.41187l3.9375,-91.8225c0.07875,-2.44125 1.14187,-4.5675 2.79562,-6.1425c1.61437,-1.575 3.81938,-2.52 6.26062,-2.52c5.00063,0 9.05625,4.05562 9.05625,9.05625v61.81875l1.69313,-72.84375c0.07875,-2.75625 1.22062,-5.1975 3.07125,-6.96937c1.81125,-1.77187 4.29188,-2.87438 7.04813,-2.87438c5.47312,0 9.96187,4.37063 10.11937,9.84375l1.69312,72.84375v-61.85812c0,-2.48062 1.02375,-4.76437 2.63812,-6.37875c1.61437,-1.61438 3.89813,-2.63813 6.37875,-2.63813c4.84312,0 8.82,3.85875 8.9775,8.70187l1.69312,62.17312v-43.07625c0,-2.24438 0.90562,-4.2525 2.3625,-5.74875c1.49625,-1.45687 3.50438,-2.3625 5.74875,-2.3625c4.29188,0 7.83562,3.34688 8.07188,7.63875c0.90562,16.65562 3.03187,71.46562 3.50437,82.92375c0.59062,15.00187 -3.70125,51.1875 -35.4375,51.1875z"></path></g><path d="M165.375,130.01625c-5.27625,-5.31562 -12.20625,-7.95375 -19.13625,-7.95375c-3.81937,0 -7.59938,0.7875 -11.14312,2.40188c-2.91375,1.29937 -5.63063,3.15 -8.0325,5.55187l-0.98438,0.98438l-0.945,-0.945c-2.44125,-2.44125 -5.1975,-4.29187 -8.15063,-5.59125c-3.50437,-1.575 -7.245,-2.3625 -11.025,-2.3625c-6.89063,0 -13.82062,2.63813 -19.13625,7.95375c-10.59188,10.59188 -10.59188,27.72 0,38.31187l20.75063,20.75063l13.62375,13.62375c1.33875,1.33875 3.11063,2.00813 4.8825,2.00813c1.77187,0 3.54375,-0.66938 4.8825,-2.00813l34.41375,-34.41375c10.59187,-10.59188 10.59187,-27.72 0,-38.31188zM170.92687,124.425c-6.57563,-6.615 -15.35625,-10.2375 -24.68812,-10.2375c-3.70125,0 -7.28437,0.55125 -10.71,1.69313c-0.11812,2.91375 -0.27562,5.78812 -0.43312,8.58375c-2.91375,1.29937 -5.63063,3.15 -8.0325,5.55187l-0.98438,0.98438l-0.945,-0.945c-2.44125,-2.44125 -5.1975,-4.29187 -8.15063,-5.59125c-0.1575,-2.79563 -0.315,-5.67 -0.43312,-8.62312c-3.38625,-1.06313 -6.93,-1.61437 -10.59187,-1.61437c-9.33187,0 -18.1125,3.6225 -24.68813,10.2375c-13.66312,13.66312 -13.66312,35.83125 0,49.455l20.75063,20.75062c2.12625,-1.61437 3.9375,-3.50438 5.55188,-5.55187l13.62375,13.62375c1.33875,1.33875 3.11063,2.00813 4.8825,2.00813c1.77187,0 3.54375,-0.66938 4.8825,-2.00813l13.58437,-13.58437c1.61437,2.0475 3.42562,3.9375 5.55188,5.55187l20.82937,-20.82937c13.66312,-13.62375 13.66312,-35.79188 0,-49.455z" fill="#efd8be" stroke="none" stroke-width="1" stroke-linecap="butt" stroke-linejoin="miter"></path><path d="M27.14906,149.52262l-19.27406,-43.21012l9.67837,4.16981l10.68244,16.24219c4.71712,7.14656 4.28794,16.14375 -1.08675,22.9005z" fill="#fff7f0" stroke="none" stroke-width="1" stroke-linecap="butt" stroke-linejoin="miter"></path><path d="M224.4375,149.625c-5.37862,-6.75281 -5.80388,-15.75394 -1.08675,-22.9005l10.68244,-16.24219l9.67837,-4.16981l-19.27406,43.21012z" fill="#fff7f0" stroke="none" stroke-width="1" stroke-linecap="butt" stroke-linejoin="miter"></path><path d="M59.0625,157.5c-25.578,0 -27.53494,-24.255 -32.94506,-37.044c-5.41013,-12.789 -12.97406,-13.98206 -14.94281,-13.98206c-5.90625,0 -9.25706,3.72487 -5.90625,13.78125c1.96875,5.90625 1.76794,15.85631 3.73275,25.69612c1.96481,9.83981 5.79994,27.6255 20.0655,41.643c14.26556,14.0175 29.99587,13.21819 29.99587,13.21819c0,0 -8.09944,0 23.625,0c31.72444,0 36.04388,-36.17381 35.4375,-51.1875c-0.46463,-11.46206 -2.59481,-66.25237 -3.51619,-82.91981c-0.23625,-4.29187 -3.78394,-7.64269 -8.07975,-7.64269v0c-4.46906,0 -8.09156,3.6225 -8.09156,8.09156v43.09594" fill="none" stroke="#00897b" stroke-width="7.875" stroke-linecap="round" stroke-linejoin="round"></path><path d="M98.4375,110.25l-1.67737,-62.16919c-0.16144,-4.85494 -4.14619,-8.70581 -9.00506,-8.70581v0c-4.97306,0 -9.00506,4.032 -9.00506,9.00506v61.86994" fill="none" stroke="#00897b" stroke-width="7.875" stroke-linecap="round" stroke-linejoin="round"></path><path d="M78.75,110.25l-1.69706,-72.84769c-0.14963,-5.47706 -4.63444,-9.83981 -10.11544,-9.83981v0c-5.481,0 -9.96581,4.36275 -10.11544,9.83981l-1.69706,72.84769" fill="none" stroke="#00897b" stroke-width="7.875" stroke-linecap="round" stroke-linejoin="round"></path><path d="M55.125,110.25v-61.81087c0,-5.00456 -4.05956,-9.06412 -9.06412,-9.06412v0c-4.84312,0 -8.83181,3.80756 -9.05625,8.64281l-3.51225,90.88931" fill="none" stroke="#00897b" stroke-width="7.875" stroke-linecap="round" stroke-linejoin="round"></path><path d="M193.0635,157.5c25.578,0 27.53494,-24.255 32.94506,-37.044c5.41013,-12.789 12.97406,-13.98206 14.94281,-13.98206c5.90625,0 9.25706,3.72487 5.90625,13.78125c-1.96875,5.90625 -1.76794,15.85631 -3.73275,25.69612c-1.96875,9.83588 -5.79994,27.6255 -20.0655,41.643c-14.26556,14.02144 -29.99588,13.21819 -29.99588,13.21819c0,0 8.09944,0 -23.625,0c-31.72444,0 -36.04387,-36.17381 -35.4375,-51.1875c0.46463,-11.45812 2.52,-66.22087 3.40594,-82.90012c0.22444,-4.29581 3.78,-7.66238 8.08369,-7.66238v0c4.46119,0 8.08369,3.61069 8.09944,8.07187l0.09844,43.11562" fill="none" stroke="#00897b" stroke-width="7.875" stroke-linecap="round" stroke-linejoin="round"></path><path d="M153.6885,110.25l1.67737,-62.16919c0.16144,-4.85494 4.14225,-8.70581 9.00112,-8.70581v0c4.97306,0 9.00506,4.032 9.00506,9.00506v61.86994" fill="none" stroke="#00897b" stroke-width="7.875" stroke-linecap="round" stroke-linejoin="round"></path><path d="M173.376,110.25l1.69706,-72.84769c0.14963,-5.47706 4.63444,-9.83981 10.11544,-9.83981v0c5.481,0 9.96581,4.36275 10.11544,9.83981l1.69706,72.84769" fill="none" stroke="#00897b" stroke-width="7.875" stroke-linecap="round" stroke-linejoin="round"></path><path d="M197.001,110.25v-61.81087c0,-5.0085 4.05956,-9.06412 9.06412,-9.06412v0c4.84313,0 8.83181,3.80756 9.05625,8.64281l3.50831,90.88931" fill="none" stroke="#00897b" stroke-width="7.875" stroke-linecap="round" stroke-linejoin="round"></path><path d="M162.50062,132.68981v0c-9.05625,-8.91844 -23.73919,-8.91844 -32.79937,0v0l-3.9375,3.87844l-3.9375,-3.87844c-9.05625,-8.91844 -23.73919,-8.91844 -32.79937,0v0v0c-9.05625,8.91844 -9.05625,23.37694 0,32.29537v0l36.26437,35.82731l0.43313,-0.42525l0.27562,0.42525l36.3825,-35.82731c9.09169,-8.883 9.14287,-23.34544 0.11813,-32.29537z" fill="#009688" stroke="none" stroke-width="1" stroke-linecap="butt" stroke-linejoin="miter"></path><path d="M127.02375,130.03988l-0.945,0.945l-0.945,-0.945c-10.58006,-10.58006 -27.73181,-10.58006 -38.31187,0c-10.58006,10.58006 -10.58006,27.73575 0,38.31975l34.37437,34.38225c2.70112,2.68144 7.06387,2.68144 9.765,0l34.41375,-34.42556c10.58006,-10.58006 10.58006,-27.73575 0,-38.31975c-10.58006,-10.58006 -27.73181,-10.58006 -38.31187,0v0zM159.74437,162.76444l-33.74437,33.6735l-33.66562,-33.6735c-7.35525,-7.6545 -7.11113,-19.81744 0.53944,-27.17269c7.43794,-7.1505 19.19137,-7.1505 26.62931,0l0.945,0.945l-1.61437,1.61437c-1.64981,1.41356 -1.84275,3.90206 -0.42919,5.55187c1.41356,1.64981 3.90206,1.84275 5.55187,0.42919c0.15356,-0.13387 0.29925,-0.27562 0.42919,-0.42919l1.575,-1.575v0l6.49687,-6.49687c7.65056,-7.35525 19.8135,-7.11506 27.16875,0.53944c7.14656,7.43794 7.14656,19.19531 0,26.63325z" fill="#00897b" stroke="none" stroke-width="1" stroke-linecap="butt" stroke-linejoin="miter"></path><path d="M212.625,212.625c-2.1735,0 -3.9375,1.764 -3.9375,3.9375v7.875c0,2.1735 1.764,3.9375 3.9375,3.9375c2.1735,0 3.9375,-1.764 3.9375,-3.9375v-7.875c0,-2.1735 -1.764,-3.9375 -3.9375,-3.9375z" fill="#00897b" stroke="none" stroke-width="1" stroke-linecap="butt" stroke-linejoin="miter"></path><path d="M192.9375,212.625c-2.1735,0 -3.9375,1.764 -3.9375,3.9375v7.875c0,2.1735 1.764,3.9375 3.9375,3.9375c2.1735,0 3.9375,-1.764 3.9375,-3.9375v-7.875c0,-2.1735 -1.764,-3.9375 -3.9375,-3.9375z" fill="#00897b" stroke="none" stroke-width="1" stroke-linecap="butt" stroke-linejoin="miter"></path><path d="M173.25,212.625c-2.1735,0 -3.9375,1.764 -3.9375,3.9375v7.875c0,2.1735 1.764,3.9375 3.9375,3.9375c2.1735,0 3.9375,-1.764 3.9375,-3.9375v-7.875c0,-2.1735 -1.764,-3.9375 -3.9375,-3.9375z" fill="#00897b" stroke="none" stroke-width="1" stroke-linecap="butt" stroke-linejoin="miter"></path><path d="M153.5625,212.625c-2.1735,0 -3.9375,1.764 -3.9375,3.9375v7.875c0,2.1735 1.764,3.9375 3.9375,3.9375c2.1735,0 3.9375,-1.764 3.9375,-3.9375v-7.875c0,-2.1735 -1.764,-3.9375 -3.9375,-3.9375z" fill="#00897b" stroke="none" stroke-width="1" stroke-linecap="butt" stroke-linejoin="miter"></path><path d="M98.4375,212.625c-2.1735,0 -3.9375,1.764 -3.9375,3.9375v7.875c0,2.1735 1.764,3.9375 3.9375,3.9375c2.1735,0 3.9375,-1.764 3.9375,-3.9375v-7.875c0,-2.1735 -1.764,-3.9375 -3.9375,-3.9375z" fill="#00897b" stroke="none" stroke-width="1" stroke-linecap="butt" stroke-linejoin="miter"></path><path d="M78.75,212.625c-2.1735,0 -3.9375,1.764 -3.9375,3.9375v7.875c0,2.1735 1.764,3.9375 3.9375,3.9375c2.1735,0 3.9375,-1.764 3.9375,-3.9375v-7.875c0,-2.1735 -1.764,-3.9375 -3.9375,-3.9375z" fill="#00897b" stroke="none" stroke-width="1" stroke-linecap="butt" stroke-linejoin="miter"></path><path d="M59.0625,212.625c-2.1735,0 -3.9375,1.764 -3.9375,3.9375v7.875c0,2.1735 1.764,3.9375 3.9375,3.9375c2.1735,0 3.9375,-1.764 3.9375,-3.9375v-7.875c0,-2.1735 -1.764,-3.9375 -3.9375,-3.9375z" fill="#00897b" stroke="none" stroke-width="1" stroke-linecap="butt" stroke-linejoin="miter"></path><path d="M39.375,212.625c-2.1735,0 -3.9375,1.764 -3.9375,3.9375v7.875c0,2.1735 1.764,3.9375 3.9375,3.9375c2.1735,0 3.9375,-1.764 3.9375,-3.9375v-7.875c0,-2.1735 -1.764,-3.9375 -3.9375,-3.9375z" fill="#00897b" stroke="none" stroke-width="1" stroke-linecap="butt" stroke-linejoin="miter"></path></g><path d="M126,252c-69.58788,0 -126,-56.41212 -126,-126v0c0,-69.58788 56.41212,-126 126,-126v0c69.58788,0 126,56.41212 126,126v0c0,69.58788 -56.41212,126 -126,126z" fill="none" stroke="none" stroke-width="1" stroke-linecap="butt" stroke-linejoin="miter"></path><path d="M126,246.96c-66.80436,0 -120.96,-54.15564 -120.96,-120.96v0c0,-66.80436 54.15564,-120.96 120.96,-120.96h0c66.80436,0 120.96,54.15564 120.96,120.96v0c0,66.80436 -54.15564,120.96 -120.96,120.96z" fill="none" stroke="none" stroke-width="1" stroke-linecap="butt" stroke-linejoin="miter"></path><path d="M126,252c-69.58788,0 -126,-56.41212 -126,-126v0c0,-69.58788 56.41212,-126 126,-126v0c69.58788,0 126,56.41212 126,126v0c0,69.58788 -56.41212,126 -126,126z" fill="none" stroke="none" stroke-width="1" stroke-linecap="butt" stroke-linejoin="miter"></path><path d="M126,246.96c-66.80436,0 -120.96,-54.15564 -120.96,-120.96v0c0,-66.80436 54.15564,-120.96 120.96,-120.96h0c66.80436,0 120.96,54.15564 120.96,120.96v0c0,66.80436 -54.15564,120.96 -120.96,120.96z" fill="none" stroke="none" stroke-width="1" stroke-linecap="butt" stroke-linejoin="miter"></path><path d="" fill="none" stroke="none" stroke-width="1" stroke-linecap="butt" stroke-linejoin="miter"></path><path d="" fill="none" stroke="none" stroke-width="1" stroke-linecap="butt" stroke-linejoin="miter"></path><path d="" fill="none" stroke="none" stroke-width="1" stroke-linecap="butt" stroke-linejoin="miter"></path><path d="" fill="none" stroke="none" stroke-width="1" stroke-linecap="butt" stroke-linejoin="miter"></path><path d="" fill="none" stroke="none" stroke-width="1" stroke-linecap="butt" stroke-linejoin="miter"></path><path d="" fill="none" stroke="none" stroke-width="1" stroke-linecap="butt" stroke-linejoin="miter"></path><path d="M126,252c-69.58788,0 -126,-56.41212 -126,-126v0c0,-69.58788 56.41212,-126 126,-126v0c69.58788,0 126,56.41212 126,126v0c0,69.58788 -56.41212,126 -126,126z" fill="none" stroke="none" stroke-width="1" stroke-linecap="butt" stroke-linejoin="miter"></path><path d="M126,246.96c-66.80436,0 -120.96,-54.15564 -120.96,-120.96v0c0,-66.80436 54.15564,-120.96 120.96,-120.96h0c66.80436,0 120.96,54.15564 120.96,120.96v0c0,66.80436 -54.15564,120.96 -120.96,120.96z" fill="none" stroke="none" stroke-width="1" stroke-linecap="butt" stroke-linejoin="miter"></path><path d="M126,253.26c-70.28376,0 -127.26,-56.97624 -127.26,-127.26v0c0,-70.28376 56.97624,-127.26 127.26,-127.26h0c70.28376,0 127.26,56.97624 127.26,127.26v0c0,70.28376 -56.97624,127.26 -127.26,127.26z" fill="none" stroke="none" stroke-width="1" stroke-linecap="butt" stroke-linejoin="miter"></path><path d="M126,248.22c-67.50024,0 -122.22,-54.71976 -122.22,-122.22v0c0,-67.50024 54.71976,-122.22 122.22,-122.22v0c67.50024,0 122.22,54.71976 122.22,122.22v0c0,67.50024 -54.71976,122.22 -122.22,122.22z" fill="none" stroke="none" stroke-width="1" stroke-linecap="butt" stroke-linejoin="miter"></path><path d="M126,252c-69.58788,0 -126,-56.41212 -126,-126v0c0,-69.58788 56.41212,-126 126,-126v0c69.58788,0 126,56.41212 126,126v0c0,69.58788 -56.41212,126 -126,126z" fill="none" stroke="none" stroke-width="1" stroke-linecap="butt" stroke-linejoin="miter"></path><path d="M126,246.96c-66.80436,0 -120.96,-54.15564 -120.96,-120.96v0c0,-66.80436 54.15564,-120.96 120.96,-120.96h0c66.80436,0 120.96,54.15564 120.96,120.96v0c0,66.80436 -54.15564,120.96 -120.96,120.96z" fill="none" stroke="none" stroke-width="1" stroke-linecap="butt" stroke-linejoin="miter"></path><path d="M126,239.4c-62.62909,0 -113.4,-50.77091 -113.4,-113.4v0c0,-62.62909 50.77091,-113.4 113.4,-113.4v0c62.62909,0 113.4,50.77091 113.4,113.4v0c0,62.62909 -50.77091,113.4 -113.4,113.4z" fill="none" stroke="none" stroke-width="1" stroke-linecap="butt" stroke-linejoin="miter"></path><path d="M126,234.36c-59.84558,0 -108.36,-48.51442 -108.36,-108.36v0c0,-59.84558 48.51442,-108.36 108.36,-108.36h0c59.84558,0 108.36,48.51442 108.36,108.36v0c0,59.84558 -48.51442,108.36 -108.36,108.36z" fill="none" stroke="none" stroke-width="1" stroke-linecap="butt" stroke-linejoin="miter"></path><path d="M126,229.32c-57.06206,0 -103.32,-46.25794 -103.32,-103.32v0c0,-57.06206 46.25794,-103.32 103.32,-103.32v0c57.06206,0 103.32,46.25794 103.32,103.32v0c0,57.06206 -46.25794,103.32 -103.32,103.32z" fill="none" stroke="none" stroke-width="1" stroke-linecap="butt" stroke-linejoin="miter"></path><path d="M126,224.28c-54.27855,0 -98.28,-44.00145 -98.28,-98.28v0c0,-54.27855 44.00145,-98.28 98.28,-98.28h0c54.27855,0 98.28,44.00145 98.28,98.28v0c0,54.27855 -44.00145,98.28 -98.28,98.28z" fill="none" stroke="none" stroke-width="1" stroke-linecap="butt" stroke-linejoin="miter"></path><path d="M126,223.02c-53.58267,0 -97.02,-43.43733 -97.02,-97.02v0c0,-53.58267 43.43733,-97.02 97.02,-97.02h0c53.58267,0 97.02,43.43733 97.02,97.02v0c0,53.58267 -43.43733,97.02 -97.02,97.02z" fill="none" stroke="none" stroke-width="1" stroke-linecap="butt" stroke-linejoin="miter"></path><path d="M126,217.98c-50.79915,0 -91.98,-41.18085 -91.98,-91.98v0c0,-50.79915 41.18085,-91.98 91.98,-91.98v0c50.79915,0 91.98,41.18085 91.98,91.98v0c0,50.79915 -41.18085,91.98 -91.98,91.98z" fill="none" stroke="none" stroke-width="1" stroke-linecap="butt" stroke-linejoin="miter"></path><path d="M126,221.76c-52.88679,0 -95.76,-42.87321 -95.76,-95.76v0c0,-52.88679 42.87321,-95.76 95.76,-95.76h0c52.88679,0 95.76,42.87321 95.76,95.76v0c0,52.88679 -42.87321,95.76 -95.76,95.76z" fill="none" stroke="none" stroke-width="1" stroke-linecap="butt" stroke-linejoin="miter"></path><path d="M126,216.72c-50.10327,0 -90.72,-40.61673 -90.72,-90.72v0c0,-50.10327 40.61673,-90.72 90.72,-90.72v0c50.10327,0 90.72,40.61673 90.72,90.72v0c0,50.10327 -40.61673,90.72 -90.72,90.72z" fill="none" stroke="none" stroke-width="1" stroke-linecap="butt" stroke-linejoin="miter"></path><path d="M126,223.02c-53.58267,0 -97.02,-43.43733 -97.02,-97.02v0c0,-53.58267 43.43733,-97.02 97.02,-97.02h0c53.58267,0 97.02,43.43733 97.02,97.02v0c0,53.58267 -43.43733,97.02 -97.02,97.02z" fill="none" stroke="none" stroke-width="1" stroke-linecap="butt" stroke-linejoin="miter"></path><path d="M126,217.98c-50.79915,0 -91.98,-41.18085 -91.98,-91.98v0c0,-50.79915 41.18085,-91.98 91.98,-91.98v0c50.79915,0 91.98,41.18085 91.98,91.98v0c0,50.79915 -41.18085,91.98 -91.98,91.98z" fill="none" stroke="none" stroke-width="1" stroke-linecap="butt" stroke-linejoin="miter"></path><path d="M126,226.8c-55.6703,0 -100.8,-45.1297 -100.8,-100.8v0c0,-55.6703 45.1297,-100.8 100.8,-100.8h0c55.6703,0 100.8,45.1297 100.8,100.8v0c0,55.6703 -45.1297,100.8 -100.8,100.8z" fill="none" stroke="none" stroke-width="1" stroke-linecap="butt" stroke-linejoin="miter"></path><path d="M126,221.76c-52.88679,0 -95.76,-42.87321 -95.76,-95.76v0c0,-52.88679 42.87321,-95.76 95.76,-95.76v0c52.88679,0 95.76,42.87321 95.76,95.76v0c0,52.88679 -42.87321,95.76 -95.76,95.76z" fill="none" stroke="none" stroke-width="1" stroke-linecap="butt" stroke-linejoin="miter"></path><path d="M126,230.58c-57.75794,0 -104.58,-46.82206 -104.58,-104.58v0c0,-57.75794 46.82206,-104.58 104.58,-104.58h0c57.75794,0 104.58,46.82206 104.58,104.58v0c0,57.75794 -46.82206,104.58 -104.58,104.58z" fill="none" stroke="none" stroke-width="1" stroke-linecap="butt" stroke-linejoin="miter"></path><path d="M126,225.54c-54.97442,0 -99.54,-44.56558 -99.54,-99.54v0c0,-54.97442 44.56558,-99.54 99.54,-99.54v0c54.97442,0 99.54,44.56558 99.54,99.54v0c0,54.97442 -44.56558,99.54 -99.54,99.54z" fill="none" stroke="none" stroke-width="1" stroke-linecap="butt" stroke-linejoin="miter"></path><path d="M126,235.62c-60.54145,0 -109.62,-49.07855 -109.62,-109.62v0c0,-60.54145 49.07855,-109.62 109.62,-109.62v0c60.54145,0 109.62,49.07855 109.62,109.62v0c0,60.54145 -49.07855,109.62 -109.62,109.62z" fill="none" stroke="none" stroke-width="1" stroke-linecap="butt" stroke-linejoin="miter"></path><path d="M126,230.58c-57.75794,0 -104.58,-46.82206 -104.58,-104.58v0c0,-57.75794 46.82206,-104.58 104.58,-104.58h0c57.75794,0 104.58,46.82206 104.58,104.58v0c0,57.75794 -46.82206,104.58 -104.58,104.58z" fill="none" stroke="none" stroke-width="1" stroke-linecap="butt" stroke-linejoin="miter"></path><path d="M126,238.14c-61.93321,0 -112.14,-50.20679 -112.14,-112.14v0c0,-61.93321 50.20679,-112.14 112.14,-112.14h0c61.93321,0 112.14,50.20679 112.14,112.14v0c0,61.93321 -50.20679,112.14 -112.14,112.14z" fill="none" stroke="none" stroke-width="1" stroke-linecap="butt" stroke-linejoin="miter"></path><path d="M126,233.1c-59.1497,0 -107.1,-47.9503 -107.1,-107.1v0c0,-59.1497 47.9503,-107.1 107.1,-107.1v0c59.1497,0 107.1,47.9503 107.1,107.1v0c0,59.1497 -47.9503,107.1 -107.1,107.1z" fill="none" stroke="none" stroke-width="1" stroke-linecap="butt" stroke-linejoin="miter"></path><path d="M126,239.4c-62.62909,0 -113.4,-50.77091 -113.4,-113.4v0c0,-62.62909 50.77091,-113.4 113.4,-113.4v0c62.62909,0 113.4,50.77091 113.4,113.4v0c0,62.62909 -50.77091,113.4 -113.4,113.4z" fill="none" stroke="none" stroke-width="1" stroke-linecap="butt" stroke-linejoin="miter"></path><path d="M126,234.36c-59.84558,0 -108.36,-48.51442 -108.36,-108.36v0c0,-59.84558 48.51442,-108.36 108.36,-108.36h0c59.84558,0 108.36,48.51442 108.36,108.36v0c0,59.84558 -48.51442,108.36 -108.36,108.36z" fill="none" stroke="none" stroke-width="1" stroke-linecap="butt" stroke-linejoin="miter"></path><path d="M126,240.66c-63.32497,0 -114.66,-51.33503 -114.66,-114.66v0c0,-63.32497 51.33503,-114.66 114.66,-114.66v0c63.32497,0 114.66,51.33503 114.66,114.66v0c0,63.32497 -51.33503,114.66 -114.66,114.66z" fill="none" stroke="none" stroke-width="1" stroke-linecap="butt" stroke-linejoin="miter"></path><path d="M126,235.62c-60.54145,0 -109.62,-49.07855 -109.62,-109.62v0c0,-60.54145 49.07855,-109.62 109.62,-109.62h0c60.54145,0 109.62,49.07855 109.62,109.62v0c0,60.54145 -49.07855,109.62 -109.62,109.62z" fill="none" stroke="none" stroke-width="1" stroke-linecap="butt" stroke-linejoin="miter"></path><path d="M126,243.18c-64.71673,0 -117.18,-52.46327 -117.18,-117.18v0c0,-64.71673 52.46327,-117.18 117.18,-117.18v0c64.71673,0 117.18,52.46327 117.18,117.18v0c0,64.71673 -52.46327,117.18 -117.18,117.18z" fill="none" stroke="none" stroke-width="1" stroke-linecap="butt" stroke-linejoin="miter"></path><path d="M126,238.14c-61.93321,0 -112.14,-50.20679 -112.14,-112.14v0c0,-61.93321 50.20679,-112.14 112.14,-112.14h0c61.93321,0 112.14,50.20679 112.14,112.14v0c0,61.93321 -50.20679,112.14 -112.14,112.14z" fill="none" stroke="none" stroke-width="1" stroke-linecap="butt" stroke-linejoin="miter"></path><path d="M126,244.44c-65.41261,0 -118.44,-53.02739 -118.44,-118.44v0c0,-65.41261 53.02739,-118.44 118.44,-118.44v0c65.41261,0 118.44,53.02739 118.44,118.44v0c0,65.41261 -53.02739,118.44 -118.44,118.44z" fill="none" stroke="none" stroke-width="1" stroke-linecap="butt" stroke-linejoin="miter"></path><path d="M126,239.4c-62.62909,0 -113.4,-50.77091 -113.4,-113.4v0c0,-62.62909 50.77091,-113.4 113.4,-113.4h0c62.62909,0 113.4,50.77091 113.4,113.4v0c0,62.62909 -50.77091,113.4 -113.4,113.4z" fill="none" stroke="none" stroke-width="1" stroke-linecap="butt" stroke-linejoin="miter"></path><path d="M126,244.44c-65.41261,0 -118.44,-53.02739 -118.44,-118.44v0c0,-65.41261 53.02739,-118.44 118.44,-118.44v0c65.41261,0 118.44,53.02739 118.44,118.44v0c0,65.41261 -53.02739,118.44 -118.44,118.44z" fill="none" stroke="none" stroke-width="1" stroke-linecap="butt" stroke-linejoin="miter"></path><path d="M126,239.4c-62.62909,0 -113.4,-50.77091 -113.4,-113.4v0c0,-62.62909 50.77091,-113.4 113.4,-113.4h0c62.62909,0 113.4,50.77091 113.4,113.4v0c0,62.62909 -50.77091,113.4 -113.4,113.4z" fill="none" stroke="none" stroke-width="1" stroke-linecap="butt" stroke-linejoin="miter"></path><path d="M126,244.44c-65.41261,0 -118.44,-53.02739 -118.44,-118.44v0c0,-65.41261 53.02739,-118.44 118.44,-118.44v0c65.41261,0 118.44,53.02739 118.44,118.44v0c0,65.41261 -53.02739,118.44 -118.44,118.44z" fill="none" stroke="none" stroke-width="1" stroke-linecap="butt" stroke-linejoin="miter"></path><path d="M126,239.4c-62.62909,0 -113.4,-50.77091 -113.4,-113.4v0c0,-62.62909 50.77091,-113.4 113.4,-113.4h0c62.62909,0 113.4,50.77091 113.4,113.4v0c0,62.62909 -50.77091,113.4 -113.4,113.4z" fill="none" stroke="none" stroke-width="1" stroke-linecap="butt" stroke-linejoin="miter"></path></g></g></svg>